<?xml version="1.0" standalone="no"?>
<!DOCTYPE svg PUBLIC "-//W3C//DTD SVG 20010904//EN"
 "http://www.w3.org/TR/2001/REC-SVG-20010904/DTD/svg10.dtd">
<svg version="1.0" xmlns="http://www.w3.org/2000/svg"
 width="2500.000000pt" height="451.000000pt" viewBox="0 0 2500.000000 451.000000"
 preserveAspectRatio="xMidYMid meet">

<g transform="translate(0.000000,451.000000) scale(0.100000,-0.100000)"
fill="#000000" stroke="none">
<path d="M18271 4318 c-49 -50 -40 -93 26 -127 45 -23 113 38 96 86 -10 28
-55 73 -74 73 -9 0 -31 -14 -48 -32z"/>
<path d="M19818 4318 c-27 -31 -36 -71 -20 -94 4 -6 22 -19 40 -28 29 -15 35
-15 62 -1 58 30 64 71 16 120 -41 43 -63 44 -98 3z"/>
<path d="M20611 4319 c-49 -49 -40 -94 26 -128 18 -9 29 -8 53 4 57 30 58 90
1 138 -30 24 -45 22 -80 -14z"/>
<path d="M19254 4270 c-28 -11 -64 -58 -64 -82 0 -48 60 -95 107 -83 33 8 73
52 73 81 0 27 -45 80 -75 87 -11 3 -30 2 -41 -3z"/>
<path d="M21223 4261 c-60 -37 -55 -111 9 -146 37 -19 38 -20 72 -1 55 29 66
94 23 134 -34 31 -67 35 -104 13z"/>
<path d="M18233 4152 c-25 -16 -43 -83 -49 -180 -7 -98 -6 -100 19 -122 27
-24 31 -46 41 -223 2 -42 9 -84 16 -92 16 -19 103 -20 118 -2 6 7 14 75 18
151 7 129 9 139 32 161 23 22 24 26 21 131 -3 87 -8 116 -25 144 -20 35 -20
35 -100 38 -43 1 -84 -1 -91 -6z"/>
<path d="M19759 4116 c-13 -31 -22 -78 -26 -144 -6 -97 -5 -99 20 -123 25 -23
27 -32 35 -161 6 -83 14 -144 22 -153 19 -22 106 -20 119 3 5 10 13 78 17 151
6 124 9 134 32 156 23 22 24 26 21 131 -3 87 -8 116 -25 144 l-20 35 -87 3
-88 3 -20 -45z"/>
<path d="M20567 4148 c-24 -19 -47 -120 -47 -207 0 -68 2 -77 25 -96 23 -19
25 -27 31 -150 8 -148 16 -184 39 -165 9 8 15 30 15 59 0 94 42 200 87 220 28
13 29 23 2 77 -18 38 -19 48 -8 83 6 22 25 52 40 67 34 33 36 48 9 92 -20 32
-20 32 -98 32 -47 0 -85 -5 -95 -12z"/>
<path d="M21764 4106 c-43 -43 -45 -83 -6 -127 24 -26 36 -32 72 -32 36 0 48
6 72 32 39 44 37 84 -6 127 -24 24 -43 34 -66 34 -23 0 -41 -10 -66 -34z"/>
<path d="M22794 4106 c-43 -43 -45 -83 -6 -127 23 -26 36 -32 68 -32 99 0 138
91 70 159 -24 24 -43 34 -66 34 -23 0 -41 -10 -66 -34z"/>
<path d="M19173 4052 c-12 -13 -27 -47 -33 -75 -13 -62 -15 -240 -2 -245 38
-12 42 -27 53 -187 12 -175 19 -195 71 -195 36 0 44 20 24 59 -32 62 -18 124
45 202 21 26 41 58 44 72 4 14 18 33 32 43 26 16 26 16 21 138 -4 98 -9 129
-27 164 -12 23 -25 42 -29 43 -4 0 -45 1 -92 2 -77 2 -87 0 -107 -21z"/>
<path d="M21166 4060 c-8 -8 -19 -25 -25 -38 -17 -33 -32 -178 -25 -240 5 -44
11 -55 30 -62 22 -9 24 -16 24 -68 0 -32 3 -62 7 -65 3 -4 25 11 48 32 24 22
59 44 78 49 20 6 55 25 77 44 l42 33 -5 110 c-5 113 -16 166 -42 199 -12 16
-29 19 -105 20 -70 1 -95 -3 -104 -14z"/>
<path d="M18784 4031 c-94 -57 -52 -201 60 -201 48 0 80 19 101 60 19 37 19
63 0 100 -29 57 -104 76 -161 41z"/>
<path d="M20773 4015 c-33 -33 -35 -39 -31 -86 6 -56 27 -84 73 -97 43 -12 89
3 119 39 61 72 4 179 -95 179 -22 0 -41 -10 -66 -35z"/>
<path d="M21729 3908 c-39 -15 -62 -92 -67 -225 -5 -141 -1 -166 31 -180 22
-10 25 -20 31 -98 3 -48 9 -91 12 -96 3 -5 20 -9 37 -9 18 0 55 -12 82 -25 28
-14 55 -25 62 -25 7 0 14 40 18 120 l8 121 29 15 30 15 -4 142 c-3 128 -6 147
-28 192 l-25 50 -98 5 c-54 3 -107 2 -118 -2z"/>
<path d="M22747 3898 c-35 -27 -50 -89 -55 -229 -5 -142 -6 -139 40 -172 13
-10 18 -44 28 -187 6 -96 13 -182 16 -191 7 -23 51 -41 73 -29 16 8 19 29 24
152 9 204 36 289 109 337 l36 23 -24 35 c-35 52 -36 116 -3 169 20 33 18 55
-9 87 -13 14 -32 17 -117 17 -65 0 -107 -4 -118 -12z"/>
<path d="M17029 3811 c-35 -35 -39 -44 -39 -89 0 -45 4 -55 35 -87 32 -31 41
-35 90 -35 49 0 58 4 90 35 31 32 35 42 35 87 0 45 -4 54 -39 89 -34 34 -44
39 -86 39 -42 0 -52 -5 -86 -39z"/>
<path d="M17692 3830 c-71 -44 -80 -140 -17 -197 29 -27 43 -33 81 -33 54 0
93 20 117 62 64 112 -69 236 -181 168z"/>
<path d="M20165 3831 c-42 -25 -65 -63 -65 -106 0 -78 51 -125 134 -125 55 0
101 35 116 88 29 110 -89 202 -185 143z"/>
<path d="M23062 3832 c-59 -45 -75 -104 -46 -165 21 -44 61 -67 118 -67 38 0
51 5 79 34 64 64 54 146 -23 199 -32 22 -99 22 -128 -1z"/>
<path d="M18724 3787 c-45 -26 -74 -147 -74 -318 0 -141 8 -154 67 -115 21 13
57 30 81 37 50 15 104 2 166 -38 63 -41 70 -29 74 113 2 65 -2 146 -8 179 -12
61 -41 128 -60 140 -16 10 -229 12 -246 2z"/>
<path d="M20729 3782 c-29 -20 -51 -69 -66 -147 -16 -85 -18 -276 -2 -292 8
-8 28 -2 71 21 90 46 156 41 250 -21 27 -17 29 -17 45 0 15 15 18 35 16 140
-2 162 -25 261 -68 297 -23 19 -221 20 -246 2z"/>
<path d="M22265 3731 c-68 -42 -96 -106 -75 -171 55 -165 290 -131 290 42 0
111 -124 186 -215 129z"/>
<path d="M19414 3626 c-17 -8 -45 -31 -62 -52 -28 -34 -32 -46 -32 -99 0 -108
69 -172 175 -163 93 8 149 69 149 165 0 43 -5 59 -30 90 -54 67 -129 90 -200
59z"/>
<path d="M21319 3631 c-140 -45 -163 -215 -40 -298 95 -64 235 5 248 121 13
114 -102 211 -208 177z"/>
<path d="M16972 3544 c-50 -35 -82 -176 -82 -358 0 -131 6 -149 55 -158 22 -4
25 -21 44 -328 5 -85 13 -163 16 -173 12 -29 61 -50 86 -36 16 8 28 8 46 0 28
-13 76 7 87 35 4 10 11 92 17 183 18 294 21 315 44 319 49 9 55 27 55 158 0
126 -17 241 -44 306 -26 61 -45 68 -181 68 -93 0 -126 -4 -143 -16z"/>
<path d="M17619 3547 c-54 -41 -80 -160 -77 -348 3 -133 5 -153 21 -160 9 -5
25 -13 35 -18 18 -9 17 3 37 -345 7 -121 11 -142 30 -164 31 -36 49 -23 65 44
18 81 75 200 106 221 72 50 80 83 42 156 -17 32 -22 59 -23 112 0 82 25 135
94 197 32 29 40 42 37 60 -3 13 -10 51 -16 85 -13 74 -33 126 -60 153 -18 18
-34 20 -147 20 -85 -1 -133 -5 -144 -13z"/>
<path d="M20075 3534 c-47 -50 -75 -183 -75 -354 0 -115 10 -143 53 -154 21
-5 25 -14 31 -58 3 -29 6 -76 6 -104 0 -48 2 -52 55 -98 74 -63 106 -128 107
-212 0 -66 8 -77 43 -64 41 15 47 37 57 178 4 75 12 186 16 246 l7 110 29 7
c16 5 33 14 37 21 15 23 10 264 -7 346 -31 151 -45 162 -212 162 -119 0 -124
-1 -147 -26z"/>
<path d="M23005 3551 c-63 -26 -95 -134 -100 -346 -4 -141 4 -171 47 -177 27
-4 29 -19 48 -317 6 -95 17 -182 23 -192 17 -27 54 -41 78 -28 14 7 30 7 47 1
15 -5 37 -6 49 -1 39 14 50 55 58 219 13 270 17 303 41 315 53 26 54 29 54
171 0 185 -27 304 -78 344 -21 17 -40 20 -136 19 -61 0 -120 -4 -131 -8z"/>
<path d="M22161 3389 c-57 -54 -86 -185 -86 -401 0 -171 1 -175 58 -194 29
-10 32 -15 35 -55 1 -24 9 -152 18 -284 19 -298 12 -285 152 -282 141 3 125
-47 161 511 l6 99 33 11 c51 18 57 36 57 191 0 156 -16 264 -50 341 -35 80
-46 84 -215 84 -135 0 -148 -2 -169 -21z"/>
<path d="M18780 3344 c-44 -17 -91 -60 -109 -100 -27 -56 -27 -106 0 -162 63
-129 254 -137 331 -15 32 53 32 145 0 191 -42 59 -88 86 -150 89 -32 1 -64 0
-72 -3z"/>
<path d="M20760 3335 c-70 -32 -110 -94 -110 -170 0 -104 81 -185 185 -185 60
0 103 19 142 63 76 87 63 200 -32 273 -46 34 -130 43 -185 19z"/>
<path d="M18036 3245 c-87 -31 -155 -139 -143 -226 7 -56 51 -125 99 -157 36
-23 52 -27 114 -27 64 0 77 3 116 30 56 40 97 114 98 176 0 91 -70 183 -161
209 -45 13 -76 12 -123 -5z"/>
<path d="M19279 3229 c-60 -64 -93 -244 -87 -475 3 -140 4 -147 27 -165 13
-11 32 -17 42 -14 9 3 20 2 23 -3 3 -5 12 -114 20 -243 24 -370 25 -376 37
-403 17 -36 70 -59 104 -46 15 6 43 8 61 4 19 -3 34 -3 34 0 0 4 7 42 16 84
19 92 36 147 67 210 20 39 26 74 36 215 11 150 15 171 37 204 13 20 24 42 24
50 0 8 11 31 25 51 23 33 25 46 25 137 0 190 -51 383 -109 415 -11 6 -91 10
-186 10 l-167 0 -29 -31z"/>
<path d="M21167 3232 c-35 -37 -61 -106 -78 -205 -12 -71 -11 -80 5 -105 37
-58 69 -138 88 -221 17 -74 20 -130 22 -411 2 -356 4 -368 61 -402 26 -15 37
-16 68 -6 36 11 50 39 27 53 -16 10 -12 445 5 540 31 175 87 290 158 326 23
12 49 18 63 15 40 -10 36 11 -9 57 -46 45 -77 115 -77 172 0 44 27 119 51 141
25 22 24 39 -3 58 -18 13 -54 16 -188 16 l-166 0 -27 -28z"/>
<path d="M21665 3238 c-35 -19 -76 -62 -96 -100 -23 -45 -25 -142 -4 -184 48
-98 175 -150 268 -111 161 68 185 278 43 375 -43 29 -55 32 -120 32 -39 0 -80
-6 -91 -12z"/>
<path d="M1045 3144 c-11 -2 -47 -9 -80 -16 -146 -27 -289 -120 -377 -247
-100 -143 -109 -378 -22 -530 77 -133 228 -254 494 -398 261 -141 326 -201
356 -332 18 -73 17 -101 -2 -167 -19 -65 -82 -140 -147 -172 -58 -29 -149 -46
-212 -38 -92 11 -284 85 -311 122 -7 9 -9 40 -6 83 2 38 2 81 -2 96 l-7 26
-112 -3 -112 -3 0 -219 0 -219 44 -13 c65 -19 181 -41 309 -59 322 -44 591 11
769 158 106 87 165 193 190 337 29 178 -23 339 -151 465 -85 83 -188 154 -436
301 -276 163 -330 222 -330 364 0 100 70 203 167 246 86 38 256 11 378 -60
l45 -27 0 -89 c0 -78 2 -91 19 -100 23 -12 190 -13 209 -2 9 7 12 56 10 212
l-3 204 -30 8 c-62 18 -163 39 -255 53 -97 15 -359 28 -395 19z"/>
<path d="M2171 3086 c-8 -9 -11 -45 -9 -98 l3 -83 89 -3 c50 -2 96 -8 103 -14
19 -16 19 -1570 0 -1586 -7 -6 -53 -12 -103 -14 l-89 -3 -3 -86 c-2 -64 1 -89
11 -98 11 -8 100 -11 328 -9 l314 3 0 95 0 95 -65 3 c-36 1 -75 4 -87 7 l-23
5 0 620 c0 366 4 620 9 620 12 0 32 -43 137 -295 47 -115 99 -237 114 -270 15
-33 80 -188 145 -345 65 -157 123 -291 128 -297 6 -9 41 -13 109 -13 l99 0 25
58 c14 31 37 82 51 112 14 30 33 75 43 100 10 25 34 80 54 123 20 43 36 80 36
82 0 3 38 90 85 195 47 105 85 192 85 195 0 2 17 41 38 87 21 46 52 116 68
155 16 40 35 73 41 73 10 0 13 -131 15 -592 2 -327 -1 -599 -6 -605 -5 -9 -35
-13 -83 -13 l-74 0 3 -97 3 -98 360 0 360 0 3 98 3 97 -85 0 c-46 0 -91 3
-100 6 -14 6 -16 85 -16 795 0 910 -15 809 120 809 l81 0 -3 98 -3 97 -271 3
c-209 2 -274 -1 -282 -10 -5 -7 -46 -96 -90 -198 -168 -389 -284 -657 -301
-695 -10 -22 -31 -69 -46 -105 -15 -36 -39 -92 -54 -125 -15 -33 -36 -82 -46
-108 -11 -30 -23 -47 -32 -45 -8 2 -27 32 -42 68 -16 36 -37 85 -48 110 -12
25 -51 117 -88 205 -37 88 -77 183 -90 210 -12 28 -51 118 -85 200 -34 83 -75
177 -90 210 -14 33 -46 107 -71 165 -24 58 -48 108 -54 112 -5 4 -146 8 -311
8 -247 0 -304 -3 -313 -14z"/>
<path d="M4833 3093 c-9 -3 -13 -33 -13 -99 l0 -94 88 0 c48 0 93 -4 100 -8
10 -7 12 -174 10 -803 l-3 -794 -95 -5 -95 -5 0 -95 0 -95 320 0 320 0 5 89
c3 48 3 92 0 97 -3 4 -41 9 -85 11 l-80 3 -3 625 c-2 537 0 622 12 610 8 -8
42 -82 76 -165 34 -82 71 -170 82 -195 11 -25 24 -54 28 -65 5 -11 18 -40 28
-65 11 -25 68 -160 127 -300 58 -140 113 -271 122 -290 8 -19 19 -44 24 -55 5
-11 13 -32 19 -47 l10 -28 103 0 104 0 18 43 c11 23 34 75 52 115 18 41 33 75
33 77 0 2 16 39 36 82 20 43 44 98 54 123 10 25 32 77 50 115 18 39 40 90 50
115 10 25 31 74 47 110 60 132 102 227 136 310 20 47 41 85 49 85 11 0 13
-108 13 -600 l0 -600 -80 -5 -80 -5 0 -95 0 -95 365 0 365 0 0 95 0 95 -95 5
-95 5 -3 794 c-2 629 0 796 10 803 7 4 53 8 101 8 l88 0 -3 98 -3 97 -260 3
c-143 1 -269 0 -281 -2 -14 -4 -29 -26 -47 -68 -32 -78 -114 -266 -127 -293
-5 -11 -55 -126 -110 -255 -56 -129 -110 -253 -120 -275 -10 -22 -30 -68 -44
-102 -14 -35 -37 -86 -50 -115 -13 -29 -35 -80 -49 -113 -14 -33 -32 -61 -40
-63 -9 -2 -21 14 -32 45 -10 26 -31 77 -47 113 -46 102 -52 116 -123 285 -37
88 -77 183 -90 210 -12 28 -51 118 -85 200 -34 83 -75 177 -90 210 -14 33 -39
92 -55 130 -16 39 -33 76 -38 83 -7 9 -81 12 -311 11 -165 0 -307 -3 -313 -6z"/>
<path d="M7489 3088 c0 -2 -1 -43 -2 -93 l-1 -90 94 -3 c60 -2 97 -7 102 -15
9 -14 11 -1558 2 -1581 -5 -13 -23 -16 -89 -16 -46 0 -89 -2 -97 -5 -10 -4
-13 -28 -12 -93 l2 -87 401 -3 402 -2 -3 92 -3 93 -105 5 -105 5 0 310 0 310
110 7 c272 18 380 40 515 105 165 79 261 200 301 377 44 192 9 370 -96 495
-39 46 -152 116 -225 141 -136 45 -205 50 -712 50 -263 0 -478 -1 -479 -2z
m886 -202 c167 -44 246 -149 246 -326 0 -278 -142 -426 -429 -446 -67 -5 -95
-4 -107 6 -13 11 -15 63 -15 390 0 207 3 380 7 383 12 13 247 7 298 -7z"/>
<path d="M10130 3065 c-6 -15 -19 -50 -31 -78 -11 -29 -25 -63 -31 -77 -175
-436 -220 -548 -228 -565 -4 -11 -27 -67 -50 -125 -22 -58 -45 -114 -50 -125
-4 -11 -31 -76 -58 -145 -133 -329 -184 -457 -192 -475 -5 -11 -23 -57 -41
-102 l-33 -82 -55 -3 -56 -3 -3 -93 -3 -92 266 0 266 0 -3 92 -3 93 -95 5
c-104 5 -102 4 -76 70 8 19 17 42 20 50 3 8 27 69 54 135 l49 120 409 3 410 2
72 -175 c40 -97 72 -182 72 -190 0 -11 -21 -15 -92 -17 l-93 -3 -3 -93 -3 -92
367 2 367 3 0 81 c0 45 -3 86 -7 93 -4 6 -29 11 -55 11 -39 0 -50 4 -59 23 -6
12 -58 139 -116 282 -57 143 -109 274 -116 290 -7 17 -16 39 -20 50 -18 46
-93 232 -100 250 -5 11 -34 83 -65 160 -31 77 -60 149 -65 160 -4 11 -32 79
-60 150 -28 72 -56 139 -60 150 -5 11 -27 67 -50 125 -67 171 -44 155 -220
158 l-150 3 -10 -26z m112 -520 c22 -55 62 -154 88 -220 154 -381 177 -444
166 -455 -6 -6 -116 -10 -313 -10 -265 0 -304 2 -310 16 -5 13 13 64 57 169 5
11 28 67 50 125 40 99 60 149 80 195 5 11 32 80 61 153 36 92 57 132 66 130 8
-2 33 -48 55 -103z"/>
<path d="M11544 3077 c-3 -8 -4 -49 -2 -93 l3 -79 97 -3 c92 -3 98 -4 103 -25
3 -12 4 -373 3 -802 l-3 -780 -80 -3 c-133 -4 -126 2 -123 -100 l3 -87 330 0
330 0 3 84 c2 61 -1 87 -10 92 -7 5 -52 9 -99 9 -70 0 -88 3 -93 16 -10 26 -7
1162 3 1168 5 4 15 3 23 0 7 -3 85 -109 173 -236 166 -240 418 -600 658 -941
l139 -198 146 3 147 3 2 880 c2 484 3 888 3 897 0 15 13 18 98 20 l97 3 0 90
0 90 -330 0 -330 0 0 -90 0 -90 97 -3 98 -3 2 -597 c2 -328 1 -603 -1 -609 -8
-30 -32 -5 -131 139 -140 202 -586 841 -790 1131 l-86 122 -237 3 c-193 2
-238 0 -243 -11z"/>
<path d="M13852 2998 l3 -93 95 -5 95 -5 0 -800 0 -800 -95 -5 -95 -5 -3 -93
-3 -92 753 2 753 3 0 200 0 200 -102 3 -102 3 -3 -108 -3 -108 -345 0 -345 0
-3 354 c-1 197 2 359 7 364 10 10 405 12 421 2 6 -3 10 -31 10 -61 l0 -55 91
3 90 3 0 215 0 215 -90 3 -91 3 0 -54 c0 -29 -5 -58 -12 -65 -18 -18 -402 -17
-417 2 -8 9 -11 108 -9 342 l3 329 315 0 315 0 3 -98 3 -98 97 3 97 3 3 193 2
192 -720 0 -721 0 3 -92z"/>
<path d="M15678 3004 c-2 -52 1 -89 8 -94 5 -5 50 -10 100 -12 l89 -3 0 -800
0 -800 -90 -3 c-49 -2 -94 -7 -98 -11 -5 -5 -9 -47 -9 -92 l0 -84 756 -3 756
-2 0 205 0 205 -100 0 -99 0 -3 -107 -3 -108 -350 0 -350 0 0 800 0 800 98 3
97 3 0 94 0 95 -399 0 -400 0 -3 -86z"/>
<path d="M18651 2919 c-95 -39 -152 -290 -136 -595 7 -119 10 -138 28 -155 11
-10 33 -19 48 -19 34 0 36 -5 44 -145 21 -374 38 -571 50 -596 20 -37 36 -42
150 -45 111 -2 146 10 164 55 10 25 19 137 42 526 6 99 12 186 14 193 3 6 16
12 30 12 39 0 62 16 74 51 16 47 13 295 -5 418 -24 166 -48 233 -99 281 -26
25 -30 25 -203 27 -100 1 -187 -2 -201 -8z"/>
<path d="M20643 2920 c-27 -11 -66 -70 -86 -131 -34 -101 -41 -166 -41 -382
-1 -218 -1 -219 23 -238 13 -10 36 -19 51 -19 26 0 28 -3 34 -52 3 -29 13
-163 21 -298 24 -377 24 -381 55 -412 26 -26 30 -26 138 -25 101 2 113 4 136
26 32 30 34 42 46 236 5 88 15 242 21 343 l12 182 31 0 c57 1 68 19 79 132 18
181 -17 458 -71 564 -40 78 -42 79 -246 81 -99 1 -191 -2 -203 -7z"/>
<path d="M19905 2771 c-74 -24 -123 -76 -150 -160 -36 -107 16 -221 125 -277
44 -22 141 -23 191 -1 150 66 185 262 68 379 -28 28 -62 51 -85 57 -42 12
-117 13 -149 2z"/>
<path d="M17855 2739 c-40 -48 -60 -95 -85 -194 -29 -121 -43 -311 -35 -472 7
-131 7 -133 36 -158 22 -18 37 -23 58 -19 l29 6 6 -63 c3 -35 10 -140 16 -234
33 -507 35 -530 55 -557 27 -36 66 -52 112 -44 49 9 71 9 110 0 45 -9 78 1
108 34 32 34 32 38 50 327 8 132 19 305 25 385 5 80 10 147 10 149 0 2 13 1
30 -2 22 -5 36 0 58 18 27 23 29 30 36 122 3 54 2 175 -4 268 -13 233 -49 363
-118 438 l-26 27 -222 0 -222 0 -27 -31z"/>
<path d="M21522 2754 c-40 -27 -78 -115 -108 -243 -15 -61 -18 -123 -19 -323
0 -243 0 -248 22 -270 16 -15 35 -22 60 -23 l38 0 11 -185 c7 -102 17 -275 24
-385 6 -110 16 -217 21 -237 18 -72 95 -107 164 -76 21 9 31 9 46 0 47 -30
125 -5 152 50 16 34 18 51 53 583 9 132 18 243 21 248 3 5 14 6 26 3 30 -7 76
20 84 52 13 47 9 440 -6 517 -29 151 -66 246 -113 285 -21 18 -41 19 -238 20
-180 0 -219 -3 -238 -16z"/>
<path d="M23866 2721 c-3 -4 -37 -30 -76 -56 -72 -49 -81 -63 -54 -86 13 -10
20 -10 44 4 15 9 30 17 33 17 2 0 94 -126 203 -280 110 -154 204 -280 211
-280 17 0 81 43 88 59 3 7 0 20 -6 27 -19 23 -2 47 29 41 51 -10 118 12 161
53 47 46 66 102 58 178 -10 95 -106 232 -194 276 -48 24 -118 21 -169 -9 -56
-33 -84 -73 -91 -135 -4 -31 -11 -50 -19 -50 -7 0 -52 56 -100 125 -82 116
-104 139 -118 116z m433 -171 c44 -22 107 -103 128 -167 29 -85 -10 -156 -92
-169 -24 -3 -51 -3 -62 1 -30 10 -143 180 -143 215 0 68 55 139 108 140 12 0
40 -9 61 -20z"/>
<path d="M23633 2236 c-91 -66 -86 -61 -78 -85 7 -23 26 -27 54 -9 10 6 25 9
33 5 8 -3 50 -54 92 -113 61 -86 76 -115 76 -143 0 -65 -65 -140 -109 -126
-26 8 -57 45 -165 199 -48 69 -93 126 -98 126 -13 0 -168 -109 -168 -119 0 -4
6 -16 14 -27 14 -19 15 -19 47 0 38 22 24 34 134 -120 111 -156 132 -176 191
-181 87 -9 161 51 184 146 6 28 16 51 21 51 6 0 20 -12 33 -27 l23 -26 81 58
c45 32 82 64 82 71 0 6 -7 18 -16 25 -14 11 -21 10 -47 -5 -31 -17 -32 -17
-46 3 -55 83 -248 345 -256 347 -6 2 -43 -20 -82 -50z"/>
<path d="M19712 2225 c-32 -27 -76 -117 -96 -197 -36 -141 -41 -197 -41 -440
l0 -246 24 -26 c19 -20 34 -26 68 -26 24 0 43 -1 43 -2 0 -2 5 -70 10 -153 5
-82 16 -258 24 -390 25 -387 24 -385 98 -431 46 -29 57 -30 102 -3 l36 21 29
-21 c16 -12 40 -21 53 -21 30 0 101 60 116 97 6 15 16 102 22 193 5 91 15 239
21 330 5 91 13 212 17 270 l7 105 48 5 c73 9 79 20 91 167 11 141 -3 390 -29
511 -27 130 -89 260 -130 276 -9 3 -122 6 -250 6 -233 0 -233 0 -263 -25z"/>
<path d="M22943 2047 c-15 -13 -49 -38 -75 -56 -53 -35 -54 -38 -34 -67 13
-16 18 -17 35 -6 12 6 29 12 38 12 12 -1 80 -88 196 -251 l179 -251 -27 -28
c-24 -25 -25 -30 -13 -49 13 -22 33 -27 42 -12 4 5 51 41 107 81 101 72 113
91 77 114 -13 8 -21 6 -36 -7 -10 -10 -25 -15 -33 -12 -8 3 -102 129 -209 280
-107 151 -200 275 -207 275 -6 0 -24 -10 -40 -23z"/>
<path d="M22752 1620 c-90 -46 -147 -99 -178 -165 -43 -90 -23 -190 54 -276
69 -78 103 -94 197 -94 66 0 89 5 130 25 48 24 165 129 165 148 0 5 -9 21 -21
36 l-21 26 -44 -49 c-90 -100 -181 -115 -263 -44 -125 106 -136 265 -22 323
52 26 63 25 91 -5 22 -23 25 -24 42 -8 10 9 18 20 18 25 0 13 -60 98 -68 97
-4 0 -40 -18 -80 -39z"/>
<path d="M22467 924 c-48 -35 -48 -35 -32 -62 9 -15 27 -39 39 -55 l22 -27 47
30 c26 16 50 36 53 44 6 16 -54 106 -70 106 -6 0 -33 -16 -59 -36z"/>
</g>
</svg>
